M48
; DRILL file {KiCad (6.0.10)} date Mon Apr  3 10:33:27 2023
; FORMAT={-:-/ absolute / metric / decimal}
; #@! TF.CreationDate,2023-04-03T10:33:27+03:00
; #@! TF.GenerationSoftware,Kicad,Pcbnew,(6.0.10)
; #@! TF.FileFunction,Plated,1,2,PTH
FMAT,2
METRIC
; #@! TA.AperFunction,Plated,PTH,ComponentDrill
T1C1.000
%
G90
G05
T1
X144.93Y-69.831
X144.93Y-72.371
X144.93Y-74.911
X144.93Y-77.451
X144.93Y-79.991
X144.93Y-82.531
X144.93Y-85.071
X144.93Y-87.611
X144.93Y-90.151
X144.93Y-92.691
X144.93Y-95.231
X144.93Y-97.771
X144.93Y-100.311
X144.93Y-102.851
X144.93Y-105.391
X162.71Y-69.831
X162.71Y-72.371
X162.71Y-74.911
X162.71Y-77.451
X162.71Y-79.991
X162.71Y-82.531
X162.71Y-85.071
X162.71Y-87.611
X162.71Y-90.151
X162.71Y-92.691
X162.71Y-95.231
X162.71Y-97.771
X162.71Y-100.311
X162.71Y-102.851
X162.71Y-105.391
T0
M30
