G04 #@! TF.GenerationSoftware,KiCad,Pcbnew,(6.0.10)*
G04 #@! TF.CreationDate,2023-04-03T10:33:17+03:00*
G04 #@! TF.ProjectId,testboard,74657374-626f-4617-9264-2e6b69636164,rev?*
G04 #@! TF.SameCoordinates,Original*
G04 #@! TF.FileFunction,Soldermask,Top*
G04 #@! TF.FilePolarity,Negative*
%FSLAX46Y46*%
G04 Gerber Fmt 4.6, Leading zero omitted, Abs format (unit mm)*
G04 Created by KiCad (PCBNEW (6.0.10)) date 2023-04-03 10:33:17*
%MOMM*%
%LPD*%
G01*
G04 APERTURE LIST*
G04 Aperture macros list*
%AMRoundRect*
0 Rectangle with rounded corners*
0 $1 Rounding radius*
0 $2 $3 $4 $5 $6 $7 $8 $9 X,Y pos of 4 corners*
0 Add a 4 corners polygon primitive as box body*
4,1,4,$2,$3,$4,$5,$6,$7,$8,$9,$2,$3,0*
0 Add four circle primitives for the rounded corners*
1,1,$1+$1,$2,$3*
1,1,$1+$1,$4,$5*
1,1,$1+$1,$6,$7*
1,1,$1+$1,$8,$9*
0 Add four rect primitives between the rounded corners*
20,1,$1+$1,$2,$3,$4,$5,0*
20,1,$1+$1,$4,$5,$6,$7,0*
20,1,$1+$1,$6,$7,$8,$9,0*
20,1,$1+$1,$8,$9,$2,$3,0*%
G04 Aperture macros list end*
%ADD10RoundRect,0.250000X0.450000X-0.350000X0.450000X0.350000X-0.450000X0.350000X-0.450000X-0.350000X0*%
%ADD11RoundRect,0.250000X0.450000X-0.325000X0.450000X0.325000X-0.450000X0.325000X-0.450000X-0.325000X0*%
%ADD12R,1.550000X1.300000*%
%ADD13RoundRect,0.250000X-0.450000X0.350000X-0.450000X-0.350000X0.450000X-0.350000X0.450000X0.350000X0*%
%ADD14R,1.700000X1.700000*%
%ADD15O,1.700000X1.700000*%
G04 APERTURE END LIST*
D10*
X184785000Y-94345000D03*
X184785000Y-92345000D03*
X184785000Y-109585000D03*
X184785000Y-107585000D03*
D11*
X187325000Y-117230000D03*
X187325000Y-115180000D03*
X187215000Y-71510000D03*
X187215000Y-69460000D03*
D10*
X184785000Y-101965000D03*
X184785000Y-99965000D03*
X122717000Y-49260000D03*
X122717000Y-47260000D03*
X184785000Y-124825000D03*
X184785000Y-122825000D03*
D11*
X187325000Y-79130000D03*
X187325000Y-77080000D03*
D10*
X122717000Y-87210000D03*
X122717000Y-85210000D03*
X122717000Y-64350000D03*
X122717000Y-62350000D03*
D12*
X134185000Y-106820000D03*
X126235000Y-106820000D03*
X134185000Y-111320000D03*
X126235000Y-111320000D03*
D10*
X184785000Y-86725000D03*
X184785000Y-84725000D03*
D11*
X187215000Y-56270000D03*
X187215000Y-54220000D03*
D12*
X181140000Y-106335000D03*
X173190000Y-106335000D03*
X181140000Y-110835000D03*
X173190000Y-110835000D03*
D13*
X122717000Y-92830000D03*
X122717000Y-94830000D03*
D10*
X122717000Y-117690000D03*
X122717000Y-115690000D03*
D11*
X120431000Y-56755000D03*
X120431000Y-54705000D03*
D12*
X126235000Y-91580000D03*
X134185000Y-91580000D03*
X134185000Y-96080000D03*
X126235000Y-96080000D03*
X181140000Y-68235000D03*
X173190000Y-68235000D03*
X181140000Y-72735000D03*
X173190000Y-72735000D03*
D11*
X187325000Y-124850000D03*
X187325000Y-122800000D03*
X120431000Y-102475000D03*
X120431000Y-100425000D03*
D12*
X173190000Y-133695000D03*
X181140000Y-133695000D03*
X181140000Y-129195000D03*
X173190000Y-129195000D03*
D11*
X120431000Y-94855000D03*
X120431000Y-92805000D03*
D12*
X126235000Y-122060000D03*
X134185000Y-122060000D03*
X134185000Y-126560000D03*
X126235000Y-126560000D03*
D10*
X184785000Y-140065000D03*
X184785000Y-138065000D03*
D11*
X120431000Y-79615000D03*
X120431000Y-77565000D03*
X120015000Y-41515000D03*
X120015000Y-39465000D03*
D10*
X184785000Y-79105000D03*
X184785000Y-77105000D03*
D12*
X181140000Y-75855000D03*
X173190000Y-75855000D03*
X181140000Y-80355000D03*
X173190000Y-80355000D03*
X173190000Y-121575000D03*
X181140000Y-121575000D03*
X181140000Y-126075000D03*
X173190000Y-126075000D03*
X126235000Y-45860000D03*
X134185000Y-45860000D03*
X134185000Y-50360000D03*
X126235000Y-50360000D03*
D11*
X187325000Y-109610000D03*
X187325000Y-107560000D03*
D12*
X126235000Y-65600000D03*
X134185000Y-65600000D03*
X126235000Y-61100000D03*
X134185000Y-61100000D03*
D14*
X144929607Y-69830535D03*
D15*
X144929607Y-72370535D03*
X144929607Y-74910535D03*
X144929607Y-77450535D03*
X144929607Y-79990535D03*
X144929607Y-82530535D03*
X144929607Y-85070535D03*
X144929607Y-87610535D03*
X144929607Y-90150535D03*
X144929607Y-92690535D03*
X144929607Y-95230535D03*
X144929607Y-97770535D03*
X144929607Y-100310535D03*
X144929607Y-102850535D03*
X144929607Y-105390535D03*
X162709607Y-105390535D03*
X162709607Y-102850535D03*
X162709607Y-100310535D03*
X162709607Y-97770535D03*
X162709607Y-95230535D03*
X162709607Y-92690535D03*
X162709607Y-90150535D03*
X162709607Y-87610535D03*
X162709607Y-85070535D03*
X162709607Y-82530535D03*
X162709607Y-79990535D03*
X162709607Y-77450535D03*
X162709607Y-74910535D03*
X162709607Y-72370535D03*
D14*
X162709607Y-69830535D03*
D11*
X120431000Y-87235000D03*
X120431000Y-85185000D03*
D12*
X126235000Y-114440000D03*
X134185000Y-114440000D03*
X134185000Y-118940000D03*
X126235000Y-118940000D03*
D10*
X122717000Y-102450000D03*
X122717000Y-100450000D03*
D11*
X120431000Y-132955000D03*
X120431000Y-130905000D03*
X187325000Y-86725000D03*
X187325000Y-84675000D03*
D12*
X126235000Y-42740000D03*
X134185000Y-42740000D03*
X134185000Y-38240000D03*
X126235000Y-38240000D03*
X126235000Y-57980000D03*
X134185000Y-57980000D03*
X126235000Y-53480000D03*
X134185000Y-53480000D03*
D11*
X187325000Y-101990000D03*
X187325000Y-99940000D03*
D12*
X126235000Y-99200000D03*
X134185000Y-99200000D03*
X126235000Y-103700000D03*
X134185000Y-103700000D03*
X126235000Y-73220000D03*
X134185000Y-73220000D03*
X134185000Y-68720000D03*
X126235000Y-68720000D03*
D10*
X122717000Y-125310000D03*
X122717000Y-123310000D03*
X122717000Y-56730000D03*
X122717000Y-54730000D03*
X184785000Y-117205000D03*
X184785000Y-115205000D03*
D12*
X126235000Y-129680000D03*
X134185000Y-129680000D03*
X134185000Y-134180000D03*
X126235000Y-134180000D03*
D11*
X120431000Y-64375000D03*
X120431000Y-62325000D03*
D10*
X122717000Y-132930000D03*
X122717000Y-130930000D03*
D11*
X187325000Y-132445000D03*
X187325000Y-130395000D03*
X187325000Y-94370000D03*
X187325000Y-92320000D03*
X120431000Y-125335000D03*
X120431000Y-123285000D03*
X187325000Y-140115000D03*
X187325000Y-138065000D03*
D12*
X181140000Y-60615000D03*
X173190000Y-60615000D03*
X173190000Y-65115000D03*
X181140000Y-65115000D03*
X173190000Y-91095000D03*
X181140000Y-91095000D03*
X181140000Y-95595000D03*
X173190000Y-95595000D03*
D10*
X122717000Y-110070000D03*
X122717000Y-108070000D03*
D11*
X120431000Y-71995000D03*
X120431000Y-69945000D03*
D10*
X122717000Y-79590000D03*
X122717000Y-77590000D03*
D12*
X173190000Y-136815000D03*
X181140000Y-136815000D03*
X173190000Y-141315000D03*
X181140000Y-141315000D03*
D10*
X184785000Y-56245000D03*
X184785000Y-54245000D03*
D12*
X173190000Y-98715000D03*
X181140000Y-98715000D03*
X181140000Y-103215000D03*
X173190000Y-103215000D03*
X126235000Y-137300000D03*
X134185000Y-137300000D03*
X134185000Y-141800000D03*
X126235000Y-141800000D03*
D11*
X120431000Y-140575000D03*
X120431000Y-138525000D03*
D10*
X122717000Y-41490000D03*
X122717000Y-39490000D03*
D11*
X120431000Y-110095000D03*
X120431000Y-108045000D03*
X120431000Y-117715000D03*
X120431000Y-115665000D03*
D10*
X184785000Y-63865000D03*
X184785000Y-61865000D03*
X122717000Y-140550000D03*
X122717000Y-138550000D03*
D12*
X134185000Y-83960000D03*
X126235000Y-83960000D03*
X134185000Y-88460000D03*
X126235000Y-88460000D03*
X181140000Y-83475000D03*
X173190000Y-83475000D03*
X181140000Y-87975000D03*
X173190000Y-87975000D03*
X181140000Y-57495000D03*
X173190000Y-57495000D03*
X181140000Y-52995000D03*
X173190000Y-52995000D03*
D10*
X184785000Y-71485000D03*
X184785000Y-69485000D03*
D12*
X126235000Y-80840000D03*
X134185000Y-80840000D03*
X126235000Y-76340000D03*
X134185000Y-76340000D03*
D10*
X184785000Y-132445000D03*
X184785000Y-130445000D03*
D12*
X181140000Y-118455000D03*
X173190000Y-118455000D03*
X181140000Y-113955000D03*
X173190000Y-113955000D03*
D11*
X120431000Y-49285000D03*
X120431000Y-47235000D03*
X187215000Y-63890000D03*
X187215000Y-61840000D03*
D10*
X122717000Y-71970000D03*
X122717000Y-69970000D03*
M02*
